<svg width="55" height="31" viewBox="0 0 55 31" fill="none" xmlns="http://www.w3.org/2000/svg">
<g clip-path="url(#clip0_2528_69)">
<path fill-rule="evenodd" clip-rule="evenodd" d="M5.72925 31.4008C3.83076 31.4008 2.29175 29.8753 2.29175 27.9935V3.00645C2.29175 1.12463 3.83076 -0.400879 5.72925 -0.400879H18.3334C29.7917 -0.400879 29.7917 14.3642 22.9167 14.3642C29.7917 14.3642 32.0834 31.4008 18.3334 31.4008H5.72925ZM10.3126 13.2284C9.67976 13.2284 9.16675 12.7198 9.16675 12.0927V5.278C9.16675 4.65073 9.67976 4.14222 10.3126 4.14222H16.0417C16.0417 4.14222 20.6251 4.14222 20.6251 8.68533C20.6251 13.2284 16.0417 13.2284 16.0417 13.2284H10.3126ZM10.3126 17.7715C9.67976 17.7715 9.16675 18.2801 9.16675 18.9073V25.722C9.16675 26.3491 9.67976 26.8577 10.3126 26.8577H18.3334C18.3334 26.8577 21.7709 26.8577 21.7709 22.3146C21.7709 17.7715 18.3334 17.7715 18.3334 17.7715H10.3126Z" fill="#282828"/>
<path fill-rule="evenodd" clip-rule="evenodd" d="M49.2684 20.0509C51.168 20.0509 52.7568 18.4983 52.3695 16.6552C49.5148 3.07213 29.5917 4.32607 29.7915 20.0509C29.9439 32.0284 46.8287 35.8693 51.8002 25.0175C52.5902 23.2933 50.8169 22.3141 49.356 22.3141C48.0575 22.3141 47.0508 23.5012 46.2212 24.4914C43.833 27.3422 36.5813 27.1352 35.6236 21.2112C35.5218 20.5827 36.0487 20.0509 36.6908 20.0509H49.2684ZM36.2504 15.4994C35.9126 15.4994 35.6944 15.1487 35.8748 14.8657C38.303 11.0533 44.1406 11.0944 46.6119 14.8616C46.7973 15.1444 46.5796 15.4994 46.2393 15.4994H36.2504Z" fill="#282828"/>
<path d="M36.6667 1.87061C35.401 1.87061 34.375 2.88762 34.375 4.14216C34.375 5.39669 35.401 6.41371 36.6667 6.41371H45.8333C47.099 6.41371 48.125 5.39669 48.125 4.14216C48.125 2.88762 47.099 1.87061 45.8333 1.87061H36.6667Z" fill="#282828"/>
</g>
<defs>
<clipPath id="clip0_2528_69">
<rect width="55" height="31" fill="white"/>
</clipPath>
</defs>
</svg>
