<svg width="40" height="40" viewBox="0 0 40 40" fill="none" xmlns="http://www.w3.org/2000/svg">
<path d="M20 37.5C29.665 37.5 37.5 29.665 37.5 20C37.5 10.335 29.665 2.5 20 2.5C10.335 2.5 2.5 10.335 2.5 20C2.5 29.665 10.335 37.5 20 37.5Z" stroke="#282828" stroke-width="4.5" stroke-miterlimit="10"/>
<path d="M13.5334 3.7334C16.6156 7.21045 19.2372 11.07 21.3334 15.2167C22.3265 17.1413 23.2058 19.1225 23.9668 21.1501C25.77 25.8641 26.9738 30.786 27.5501 35.8001" stroke="#282828" stroke-width="4.5" stroke-miterlimit="10"/>
<path d="M32.7833 8.0332C29.5569 11.2602 25.6426 13.7158 21.3333 15.2165C15.3632 17.5307 8.98088 18.5916 2.58325 18.3332" stroke="#282828" stroke-width="4.5" stroke-miterlimit="10"/>
<path d="M37.3667 22.0167C33.0591 20.6468 28.4821 20.3493 24.0334 21.15C20.6778 21.7857 17.52 23.2057 14.8176 25.294C12.1153 27.3823 9.94482 30.0799 8.4834 33.1667" stroke="#282828" stroke-width="4.5" stroke-miterlimit="10"/>
</svg>
