<svg width="1262" height="152" viewBox="0 0 1262 152" fill="none" xmlns="http://www.w3.org/2000/svg">
<path d="M2.33054e-05 149.091V2.88486e-05H89.3963V16.0157H18.054V66.3921H82.6989V82.4077H18.054V149.091H2.33054e-05ZM147.662 151.42C136.888 151.42 127.594 149.042 119.78 144.286C112.015 139.482 106.021 132.784 101.799 124.194C97.6253 115.555 95.5384 105.509 95.5384 94.0554C95.5384 82.6018 97.6253 72.5071 101.799 63.7713C106.021 54.987 111.894 48.144 119.416 43.2422C126.987 38.2919 135.82 35.8168 145.915 35.8168C151.739 35.8168 157.49 36.7874 163.168 38.7287C168.846 40.67 174.015 43.8246 178.674 48.1925C183.333 52.5119 187.046 58.2387 189.812 65.3729C192.579 72.5071 193.962 81.2915 193.962 91.7259V99.0057H107.768V84.1549H176.49C176.49 77.8457 175.228 72.2159 172.705 67.2657C170.229 62.3154 166.687 58.4085 162.076 55.5451C157.514 52.6817 152.127 51.25 145.915 51.25C139.072 51.25 133.151 52.9487 128.152 56.3459C123.202 59.6946 119.392 64.0625 116.723 69.4496C114.053 74.8367 112.719 80.612 112.719 86.7756V96.6762C112.719 105.121 114.175 112.279 117.087 118.152C120.047 123.976 124.148 128.416 129.39 131.474C134.631 134.483 140.722 135.987 147.662 135.987C152.175 135.987 156.252 135.356 159.892 134.094C163.581 132.784 166.759 130.843 169.429 128.271C172.098 125.65 174.161 122.398 175.617 118.516L192.215 123.175C190.467 128.804 187.531 133.755 183.406 138.026C179.281 142.248 174.185 145.548 168.118 147.926C162.052 150.256 155.233 151.42 147.662 151.42ZM244.001 151.712C236.915 151.712 230.485 150.377 224.71 147.708C218.934 144.99 214.348 141.083 210.951 135.987C207.553 130.843 205.855 124.631 205.855 117.351C205.855 110.945 207.117 105.752 209.64 101.772C212.164 97.7439 215.537 94.5893 219.759 92.3083C223.982 90.0273 228.641 88.3286 233.737 87.2124C238.881 86.0476 244.05 85.1255 249.243 84.4461C256.037 83.5725 261.545 82.9173 265.768 82.4805C270.039 81.9952 273.145 81.1944 275.086 80.0782C277.076 78.9619 278.071 77.0206 278.071 74.2543V73.6719C278.071 66.4891 276.105 60.9079 272.174 56.9283C268.291 52.9487 262.395 50.9588 254.484 50.9588C246.282 50.9588 239.852 52.7545 235.192 56.3459C230.533 59.9373 227.257 63.7713 225.365 67.848L209.058 62.0242C211.97 55.2297 215.852 49.9397 220.706 46.1542C225.607 42.3201 230.946 39.6508 236.721 38.1463C242.545 36.5933 248.272 35.8168 253.902 35.8168C257.493 35.8168 261.618 36.2536 266.277 37.1272C270.985 37.9522 275.523 39.6751 279.891 42.2958C284.307 44.9166 287.971 48.872 290.883 54.162C293.795 59.452 295.251 66.5377 295.251 75.4191V149.091H278.071V133.949H277.197C276.032 136.376 274.091 138.972 271.373 141.738C268.655 144.505 265.04 146.858 260.526 148.8C256.013 150.741 250.504 151.712 244.001 151.712ZM246.622 136.278C253.416 136.278 259.143 134.944 263.802 132.275C268.51 129.605 272.053 126.159 274.431 121.937C276.857 117.715 278.071 113.274 278.071 108.615V92.8907C277.343 93.7642 275.741 94.565 273.266 95.293C270.839 95.9724 268.025 96.5791 264.821 97.113C261.667 97.5983 258.585 98.0351 255.576 98.4233C252.616 98.7631 250.213 99.0542 248.369 99.2969C243.904 99.8793 239.73 100.826 235.848 102.136C232.014 103.398 228.908 105.315 226.529 107.887C224.2 110.411 223.035 113.857 223.035 118.224C223.035 124.194 225.243 128.707 229.66 131.765C234.125 134.774 239.779 136.278 246.622 136.278ZM366.238 37.2728V51.8324H308.291V37.2728H366.238ZM325.18 10.483H342.36V117.06C342.36 121.913 343.064 125.553 344.472 127.979C345.927 130.358 347.772 131.959 350.004 132.784C352.285 133.561 354.688 133.949 357.211 133.949C359.104 133.949 360.657 133.852 361.87 133.658C363.084 133.415 364.054 133.221 364.782 133.075L368.277 148.509C367.112 148.945 365.486 149.382 363.399 149.819C361.312 150.304 358.667 150.547 355.464 150.547C350.611 150.547 345.855 149.503 341.196 147.417C336.585 145.33 332.751 142.151 329.693 137.88C326.684 133.609 325.18 128.222 325.18 121.719V10.483ZM453.55 103.374V37.2728H470.731V149.091H453.55V130.163H452.386C449.765 135.842 445.688 140.671 440.155 144.65C434.623 148.581 427.634 150.547 419.19 150.547C412.201 150.547 405.989 149.018 400.553 145.961C395.118 142.855 390.847 138.195 387.741 131.983C384.635 125.723 383.082 117.836 383.082 108.324V37.2728H400.262V107.159C400.262 115.313 402.543 121.816 407.105 126.669C411.716 131.522 417.588 133.949 424.722 133.949C428.993 133.949 433.337 132.857 437.753 130.673C442.218 128.489 445.955 125.14 448.964 120.627C452.022 116.113 453.55 110.362 453.55 103.374ZM493.198 149.091V37.2728H509.796V54.162H510.961C512.999 48.6293 516.687 44.1401 522.026 40.6943C527.364 37.2485 533.382 35.5256 540.08 35.5256C541.342 35.5256 542.919 35.5499 544.812 35.5984C546.705 35.6469 548.136 35.7197 549.107 35.8168V53.2884C548.525 53.1428 547.19 52.9244 545.103 52.6332C543.065 52.2935 540.905 52.1236 538.624 52.1236C533.188 52.1236 528.335 53.2641 524.064 55.5451C519.842 57.7776 516.493 60.8837 514.018 64.8633C511.592 68.7944 510.378 73.2836 510.378 78.331V149.091H493.198ZM603.951 151.42C593.177 151.42 583.883 149.042 576.069 144.286C568.304 139.482 562.31 132.784 558.088 124.194C553.914 115.555 551.827 105.509 551.827 94.0554C551.827 82.6018 553.914 72.5071 558.088 63.7713C562.31 54.987 568.183 48.144 575.705 43.2422C583.276 38.2919 592.109 35.8168 602.204 35.8168C608.028 35.8168 613.779 36.7874 619.457 38.7287C625.135 40.67 630.304 43.8246 634.963 48.1925C639.622 52.5119 643.335 58.2387 646.101 65.3729C648.868 72.5071 650.251 81.2915 650.251 91.7259V99.0057H564.058V84.1549H632.779C632.779 77.8457 631.517 72.2159 628.994 67.2657C626.518 62.3154 622.976 58.4085 618.365 55.5451C613.803 52.6817 608.416 51.25 602.204 51.25C595.361 51.25 589.44 52.9487 584.441 56.3459C579.491 59.6946 575.681 64.0625 573.012 69.4496C570.342 74.8367 569.008 80.612 569.008 86.7756V96.6762C569.008 105.121 570.464 112.279 573.376 118.152C576.336 123.976 580.437 128.416 585.679 131.474C590.92 134.483 597.011 135.987 603.951 135.987C608.465 135.987 612.541 135.356 616.181 134.094C619.87 132.784 623.048 130.843 625.718 128.271C628.387 125.65 630.45 122.398 631.906 118.516L648.504 123.175C646.756 128.804 643.82 133.755 639.695 138.026C635.57 142.248 630.474 145.548 624.407 147.926C618.341 150.256 611.522 151.42 603.951 151.42ZM709.608 151.42C700.29 151.42 692.064 149.067 684.93 144.359C677.795 139.603 672.214 132.905 668.186 124.267C664.158 115.579 662.144 105.315 662.144 93.473C662.144 81.7283 664.158 71.5365 668.186 62.8978C672.214 54.259 677.82 47.5859 685.003 42.8782C692.185 38.1706 700.484 35.8168 709.9 35.8168C717.179 35.8168 722.93 37.0301 727.153 39.4567C731.424 41.8348 734.675 44.5526 736.908 47.6101C739.189 50.6191 740.96 53.0943 742.222 55.0355H743.678V2.88486e-05H760.858V149.091H744.26V131.911H742.222C740.96 133.949 739.164 136.521 736.835 139.627C734.505 142.685 731.181 145.427 726.862 147.853C722.542 150.231 716.791 151.42 709.608 151.42ZM711.938 135.987C718.829 135.987 724.653 134.192 729.409 130.6C734.166 126.96 737.781 121.937 740.256 115.531C742.732 109.076 743.969 101.626 743.969 93.1818C743.969 84.8343 742.756 77.5302 740.329 71.2696C737.903 64.9604 734.311 60.0586 729.555 56.5643C724.799 53.0215 718.927 51.25 711.938 51.25C704.658 51.25 698.592 53.1185 693.738 56.8555C688.934 60.5439 685.318 65.567 682.891 71.9247C680.513 78.2339 679.324 85.3196 679.324 93.1818C679.324 101.141 680.538 108.372 682.964 114.876C685.439 121.331 689.079 126.475 693.884 130.309C698.737 134.094 704.755 135.987 711.938 135.987ZM859.7 149.091L825.63 37.2728H843.684L867.853 122.884H869.018L892.896 37.2728H911.241L934.827 122.592H935.992L960.161 37.2728H978.215L944.146 149.091H927.256L902.796 63.189H901.049L876.589 149.091H859.7ZM1033.55 151.42C1023.46 151.42 1014.6 149.018 1006.98 144.213C999.408 139.409 993.487 132.687 989.217 124.048C984.994 115.41 982.883 105.315 982.883 93.7642C982.883 82.1165 984.994 71.949 989.217 63.2617C993.487 54.5745 999.408 47.8285 1006.98 43.0238C1014.6 38.2191 1023.46 35.8168 1033.55 35.8168C1043.65 35.8168 1052.48 38.2191 1060.05 43.0238C1067.67 47.8285 1073.59 54.5745 1077.81 63.2617C1082.08 71.949 1084.22 82.1165 1084.22 93.7642C1084.22 105.315 1082.08 115.41 1077.81 124.048C1073.59 132.687 1067.67 139.409 1060.05 144.213C1052.48 149.018 1043.65 151.42 1033.55 151.42ZM1033.55 135.987C1041.22 135.987 1047.53 134.022 1052.48 130.091C1057.43 126.159 1061.09 120.991 1063.47 114.585C1065.85 108.178 1067.04 101.238 1067.04 93.7642C1067.04 86.2903 1065.85 79.3259 1063.47 72.8711C1061.09 66.4163 1057.43 61.1991 1052.48 57.2195C1047.53 53.2398 1041.22 51.25 1033.55 51.25C1025.88 51.25 1019.57 53.2398 1014.62 57.2195C1009.67 61.1991 1006.01 66.4163 1003.63 72.8711C1001.25 79.3259 1000.06 86.2903 1000.06 93.7642C1000.06 101.238 1001.25 108.178 1003.63 114.585C1006.01 120.991 1009.67 126.159 1014.62 130.091C1019.57 134.022 1025.88 135.987 1033.55 135.987ZM1101.44 149.091V37.2728H1118.04V54.162H1119.21C1121.25 48.6293 1124.93 44.1401 1130.27 40.6943C1135.61 37.2485 1141.63 35.5256 1148.33 35.5256C1149.59 35.5256 1151.17 35.5499 1153.06 35.5984C1154.95 35.6469 1156.38 35.7197 1157.35 35.8168V53.2884C1156.77 53.1428 1155.44 52.9244 1153.35 52.6332C1151.31 52.2935 1149.15 52.1236 1146.87 52.1236C1141.43 52.1236 1136.58 53.2641 1132.31 55.5451C1128.09 57.7776 1124.74 60.8837 1122.26 64.8633C1119.84 68.7944 1118.62 73.2836 1118.62 78.331V149.091H1101.44ZM1184.73 108.324L1184.44 87.0668H1187.94L1236.86 37.2728H1258.11L1205.99 89.9787H1204.54L1184.73 108.324ZM1168.72 149.091V2.88486e-05H1185.9V149.091H1168.72ZM1239.77 149.091L1196.09 93.7642L1208.32 81.8253L1261.61 149.091H1239.77Z" fill="white"/>
</svg>
