<svg width="1272" height="152" viewBox="0 0 1272 152" fill="none" xmlns="http://www.w3.org/2000/svg">
<path d="M-2.1778e-05 149.091V2.88486e-05H90.9978V17.69H20.3107V65.5913H84.3004V83.2813H20.3107V149.091H-2.1778e-05ZM148.481 151.42C137.561 151.42 128.17 149.042 120.308 144.286C112.446 139.482 106.379 132.784 102.108 124.194C97.8861 115.555 95.7749 105.485 95.7749 93.9826C95.7749 82.529 97.8861 72.4343 102.108 63.6985C106.379 54.9142 112.324 48.0712 119.944 43.1694C127.612 38.2677 136.566 35.8168 146.807 35.8168C152.873 35.8168 158.794 36.836 164.569 38.8743C170.393 40.8641 175.635 44.0673 180.294 48.4837C185.001 52.8516 188.714 58.6027 191.432 65.7369C194.198 72.8711 195.581 81.5827 195.581 91.8715V99.3697H108.005V83.7909H176.144C176.144 77.7729 174.931 72.4343 172.504 67.7752C170.126 63.0676 166.729 59.3549 162.313 56.6371C157.945 53.9193 152.8 52.5604 146.879 52.5604C140.376 52.5604 134.746 54.1377 129.99 57.2923C125.283 60.4469 121.643 64.5721 119.07 69.668C116.498 74.7639 115.212 80.248 115.212 86.1204V97.4042C115.212 105.363 116.595 112.134 119.362 117.715C122.176 123.248 126.083 127.47 131.082 130.382C136.081 133.245 141.905 134.677 148.554 134.677C152.873 134.677 156.804 134.07 160.347 132.857C163.89 131.595 166.923 129.727 169.447 127.251C172.019 124.776 174.009 121.67 175.416 117.933L194.053 122.156C192.354 127.979 189.394 133.1 185.171 137.516C180.997 141.884 175.78 145.305 169.52 147.781C163.307 150.207 156.295 151.42 148.481 151.42ZM244.547 151.639C237.461 151.639 231.031 150.304 225.255 147.635C219.529 144.966 214.967 141.107 211.569 136.06C208.221 130.964 206.546 124.752 206.546 117.424C206.546 111.066 207.784 105.873 210.259 101.845C212.783 97.7681 216.131 94.565 220.305 92.2355C224.479 89.9059 229.114 88.1588 234.21 86.994C239.306 85.8292 244.474 84.9314 249.716 84.3005C256.462 83.4269 261.922 82.7474 266.095 82.2621C270.318 81.7768 273.399 80.976 275.341 79.8598C277.282 78.7435 278.253 76.8265 278.253 74.1087V73.5263C278.253 66.7803 276.384 61.5389 272.647 57.8019C268.91 54.0649 263.305 52.1964 255.831 52.1964C248.066 52.1964 241.975 53.895 237.558 57.2923C233.142 60.6895 230.036 64.4023 228.24 68.4304L209.895 63.189C212.564 56.3944 216.277 51.0074 221.033 47.0277C225.838 42.9996 231.201 40.1362 237.122 38.4375C243.091 36.6904 249.182 35.8168 255.394 35.8168C259.422 35.8168 263.863 36.3021 268.716 37.2728C273.569 38.1949 278.18 40.0148 282.548 42.7326C286.964 45.4019 290.604 49.3573 293.467 54.5988C296.331 59.7917 297.763 66.6347 297.763 75.1279V149.091H278.544V133.876H277.67C276.408 136.497 274.394 139.19 271.628 141.957C268.862 144.675 265.246 146.98 260.781 148.873C256.316 150.717 250.905 151.639 244.547 151.639ZM248.187 135.186C254.642 135.186 260.102 133.925 264.567 131.401C269.032 128.877 272.429 125.601 274.758 121.573C277.136 117.545 278.325 113.25 278.325 108.688V93.6186C277.549 94.4437 275.996 95.1959 273.666 95.8754C271.337 96.5548 268.668 97.1372 265.659 97.6225C262.698 98.1079 259.786 98.5447 256.923 98.9329C254.108 99.2726 251.778 99.5638 249.934 99.8065C245.615 100.389 241.611 101.311 237.922 102.573C234.282 103.835 231.346 105.703 229.114 108.178C226.93 110.605 225.838 113.881 225.838 118.006C225.838 123.684 227.949 127.979 232.171 130.891C236.394 133.755 241.732 135.186 248.187 135.186ZM369.35 37.2728V53.2884H309.874V37.2728H369.35ZM326.472 10.483H345.982V116.696C345.982 121.209 346.637 124.606 347.948 126.887C349.307 129.12 351.054 130.624 353.189 131.401C355.324 132.177 357.63 132.566 360.105 132.566C361.901 132.566 363.429 132.469 364.691 132.275C365.953 132.032 366.948 131.838 367.676 131.692L371.389 148.363C370.175 148.8 368.452 149.261 366.22 149.746C364.036 150.28 361.27 150.547 357.921 150.547C352.631 150.595 347.584 149.576 342.779 147.489C337.974 145.354 334.043 142.102 330.986 137.734C327.977 133.367 326.472 127.858 326.472 121.209V10.483ZM456.062 103.082V37.2728H475.572V149.091H456.28V129.945H455.115C452.495 135.769 448.394 140.671 442.813 144.65C437.231 148.581 430.218 150.547 421.774 150.547C414.737 150.547 408.476 148.994 402.992 145.888C397.508 142.733 393.188 138.05 390.034 131.838C386.928 125.577 385.375 117.739 385.375 108.324V37.2728H404.885V106.431C404.885 114.342 407.093 120.651 411.509 125.359C415.926 130.018 421.58 132.347 428.471 132.347C432.694 132.347 436.916 131.304 441.138 129.217C445.361 127.082 448.903 123.854 451.767 119.535C454.63 115.215 456.062 109.731 456.062 103.082ZM496.892 149.091V37.2728H515.747V54.5988H516.912C518.95 48.8234 522.59 44.2129 527.832 40.7671C533.122 37.2728 539.067 35.5256 545.667 35.5256C546.978 35.5256 548.555 35.5741 550.399 35.6712C552.292 35.7197 553.772 35.8168 554.84 35.9624V55.1083C554.112 54.9142 552.656 54.6715 550.472 54.3804C548.336 54.0406 546.152 53.8708 543.92 53.8708C538.63 53.8708 533.898 54.987 529.724 57.2195C525.599 59.4034 522.347 62.4367 519.969 66.3193C517.591 70.2019 516.402 74.6183 516.402 79.5686V149.091H496.892ZM609.374 151.42C598.455 151.42 589.064 149.042 581.202 144.286C573.339 139.482 567.273 132.784 563.002 124.194C558.78 115.555 556.668 105.485 556.668 93.9826C556.668 82.529 558.78 72.4343 563.002 63.6985C567.273 54.9142 573.218 48.0712 580.838 43.1694C588.506 38.2677 597.46 35.8168 607.7 35.8168C613.767 35.8168 619.688 36.836 625.463 38.8743C631.287 40.8641 636.528 44.0673 641.187 48.4837C645.895 52.8516 649.608 58.6027 652.325 65.7369C655.092 72.8711 656.475 81.5827 656.475 91.8715V99.3697H568.899V83.7909H637.038C637.038 77.7729 635.824 72.4343 633.398 67.7752C631.02 63.0676 627.623 59.3549 623.206 56.6371C618.838 53.9193 613.694 52.5604 607.773 52.5604C601.27 52.5604 595.64 54.1377 590.884 57.2923C586.176 60.4469 582.536 64.5721 579.964 69.668C577.392 74.7639 576.106 80.248 576.106 86.1204V97.4042C576.106 105.363 577.489 112.134 580.255 117.715C583.07 123.248 586.977 127.47 591.976 130.382C596.974 133.245 602.798 134.677 609.447 134.677C613.767 134.677 617.698 134.07 621.241 132.857C624.783 131.595 627.817 129.727 630.34 127.251C632.913 124.776 634.902 121.67 636.31 117.933L654.946 122.156C653.248 127.979 650.287 133.1 646.065 137.516C641.891 141.884 636.674 145.305 630.413 147.781C624.201 150.207 617.188 151.42 609.374 151.42ZM714.759 151.348C705.586 151.348 697.457 149.018 690.371 144.359C683.286 139.651 677.729 132.978 673.701 124.34C669.672 115.701 667.658 105.412 667.658 93.473C667.658 81.5341 669.672 71.2696 673.701 62.6794C677.729 54.0406 683.31 47.416 690.444 42.8054C697.578 38.1463 705.756 35.8168 714.977 35.8168C722.111 35.8168 727.79 37.0058 732.012 39.3839C736.234 41.7135 739.51 44.407 741.84 47.4645C744.169 50.522 745.965 53.0943 747.227 55.1811H748.61V2.88486e-05H768.047V149.091H749.12V131.765H747.227C745.916 133.997 744.072 136.667 741.694 139.773C739.316 142.83 735.967 145.524 731.648 147.853C727.377 150.183 721.747 151.348 714.759 151.348ZM718.326 134.386C724.926 134.386 730.483 132.663 734.997 129.217C739.559 125.723 743.029 120.894 745.407 114.73C747.785 108.518 748.974 101.335 748.974 93.1818C748.974 85.1255 747.809 78.0641 745.48 71.9975C743.15 65.931 739.704 61.2234 735.142 57.8747C730.58 54.4774 724.975 52.7788 718.326 52.7788C711.434 52.7788 705.683 54.5745 701.073 58.1659C696.462 61.7087 692.992 66.5377 690.663 72.6527C688.382 78.7193 687.241 85.5623 687.241 93.1818C687.241 100.898 688.406 107.887 690.735 114.148C693.113 120.36 696.583 125.286 701.145 128.926C705.756 132.566 711.483 134.386 718.326 134.386ZM863.285 149.091L829.798 37.2728H850.108L873.113 121.136H874.277L897.136 37.2728H917.592L940.305 120.845H941.397L964.402 37.2728H984.64L951.225 149.091H931.642L908.056 65.8097H906.381L882.795 149.091H863.285ZM1040.12 151.42C1029.83 151.42 1020.83 149.018 1013.11 144.213C1005.4 139.36 999.402 132.614 995.131 123.976C990.861 115.337 988.725 105.266 988.725 93.7642C988.725 82.1165 990.861 71.949 995.131 63.2617C999.402 54.5745 1005.4 47.8285 1013.11 43.0238C1020.83 38.2191 1029.83 35.8168 1040.12 35.8168C1050.41 35.8168 1059.41 38.2191 1067.13 43.0238C1074.85 47.8285 1080.84 54.5745 1085.11 63.2617C1089.38 71.949 1091.52 82.1165 1091.52 93.7642C1091.52 105.266 1089.38 115.337 1085.11 123.976C1080.84 132.614 1074.85 139.36 1067.13 144.213C1059.41 149.018 1050.41 151.42 1040.12 151.42ZM1040.12 134.531C1047.4 134.531 1053.37 132.663 1058.03 128.926C1062.74 125.14 1066.23 120.166 1068.51 114.002C1070.79 107.79 1071.93 101.02 1071.93 93.6914C1071.93 86.4116 1070.79 79.6656 1068.51 73.4535C1066.23 67.1929 1062.74 62.1698 1058.03 58.3843C1053.37 54.5502 1047.4 52.6332 1040.12 52.6332C1032.89 52.6332 1026.92 54.5502 1022.21 58.3843C1017.5 62.1698 1014.01 67.1929 1011.73 73.4535C1009.45 79.6656 1008.31 86.4116 1008.31 93.6914C1008.31 101.02 1009.45 107.79 1011.73 114.002C1014.01 120.166 1017.5 125.14 1022.21 128.926C1026.92 132.663 1032.89 134.531 1040.12 134.531ZM1107.74 149.091V37.2728H1126.6V54.5988H1127.76C1129.8 48.8234 1133.44 44.2129 1138.68 40.7671C1143.97 37.2728 1149.92 35.5256 1156.52 35.5256C1157.83 35.5256 1159.4 35.5741 1161.25 35.6712C1163.14 35.7197 1164.62 35.8168 1165.69 35.9624V55.1083C1164.96 54.9142 1163.5 54.6715 1161.32 54.3804C1159.19 54.0406 1157 53.8708 1154.77 53.8708C1149.48 53.8708 1144.75 54.987 1140.57 57.2195C1136.45 59.4034 1133.2 62.4367 1130.82 66.3193C1128.44 70.2019 1127.25 74.6183 1127.25 79.5686V149.091H1107.74ZM1194.27 109.78L1194.05 85.8292H1197.69L1244.43 37.2728H1268.09L1216.62 90.5611H1214.22L1194.27 109.78ZM1176.22 149.091V2.88486e-05H1195.73V149.091H1176.22ZM1247.12 149.091L1205.19 94.8562L1218.88 81.2429L1271.36 149.091H1247.12Z" fill="white"/>
</svg>
