<svg width="1305" height="152" viewBox="0 0 1305 152" fill="none" xmlns="http://www.w3.org/2000/svg">
<path d="M8.73953e-06 149.091V2.88486e-05H92.4538V19.3644H22.4947V64.7905H85.8292V84.0821H22.4947V149.091H8.73953e-06ZM151.354 151.348C140.338 151.348 130.85 148.994 122.89 144.286C114.98 139.53 108.865 132.857 104.545 124.267C100.274 115.628 98.1389 105.509 98.1389 93.9098C98.1389 82.4562 100.274 72.3615 104.545 63.6257C108.865 54.8899 114.883 48.0712 122.599 43.1694C130.364 38.2677 139.44 35.8168 149.826 35.8168C156.135 35.8168 162.25 36.8602 168.171 38.9471C174.092 41.034 179.406 44.3099 184.114 48.7749C188.821 53.2399 192.534 59.0394 195.252 66.1737C197.97 73.2594 199.329 81.8738 199.329 92.0171V99.7337H110.442V83.4269H177.999C177.999 77.7001 176.834 72.6285 174.504 68.212C172.175 63.7471 168.899 60.2285 164.677 57.6563C160.503 55.0841 155.601 53.798 149.971 53.798C143.856 53.798 138.518 55.3025 133.956 58.3115C129.442 61.2719 125.948 65.1545 123.473 69.9592C121.046 74.7153 119.833 79.884 119.833 85.4652V98.2049C119.833 105.679 121.143 112.037 123.764 117.278C126.433 122.52 130.146 126.523 134.902 129.29C139.658 132.008 145.215 133.367 151.573 133.367C155.698 133.367 159.459 132.784 162.857 131.619C166.254 130.406 169.19 128.61 171.665 126.232C174.14 123.854 176.033 120.918 177.343 117.424L197.945 121.136C196.295 127.203 193.335 132.517 189.064 137.079C184.842 141.593 179.527 145.111 173.121 147.635C166.763 150.11 159.508 151.348 151.354 151.348ZM249.02 151.566C241.935 151.566 235.528 150.256 229.802 147.635C224.075 144.966 219.537 141.107 216.188 136.06C212.888 131.013 211.238 124.825 211.238 117.496C211.238 111.187 212.451 105.994 214.878 101.918C217.304 97.8409 220.58 94.6136 224.706 92.2355C228.831 89.8574 233.441 88.0617 238.537 86.8484C243.633 85.6351 248.826 84.713 254.116 84.0821C260.814 83.3055 266.249 82.6746 270.423 82.1893C274.597 81.6555 277.63 80.8061 279.523 79.6414C281.415 78.4766 282.362 76.5838 282.362 73.9631V73.4535C282.362 67.0958 280.566 62.1698 276.975 58.6755C273.432 55.1811 268.142 53.434 261.105 53.434C253.776 53.434 248.001 55.0598 243.779 58.3115C239.605 61.5146 236.717 65.0817 235.116 69.0128L214.659 64.3537C217.086 57.5592 220.629 52.0751 225.288 47.9013C229.996 43.679 235.407 40.6215 241.522 38.7287C247.637 36.7874 254.068 35.8168 260.814 35.8168C265.279 35.8168 270.01 36.3506 275.009 37.4184C280.057 38.4375 284.764 40.3303 289.132 43.0966C293.549 45.863 297.164 49.8183 299.979 54.9627C302.794 60.0586 304.201 66.6833 304.201 74.8367V149.091H282.944V133.803H282.071C280.663 136.618 278.552 139.385 275.737 142.102C272.922 144.82 269.307 147.077 264.89 148.873C260.474 150.668 255.184 151.566 249.02 151.566ZM253.752 134.094C259.77 134.094 264.915 132.905 269.185 130.527C273.505 128.149 276.781 125.043 279.013 121.209C281.294 117.327 282.435 113.177 282.435 108.761V94.3466C281.658 95.1231 280.154 95.8511 277.921 96.5306C275.737 97.1615 273.238 97.7196 270.423 98.2049C267.608 98.6417 264.866 99.0542 262.197 99.4425C259.527 99.7822 257.295 100.073 255.499 100.316C251.277 100.85 247.419 101.748 243.924 103.01C240.479 104.271 237.712 106.091 235.625 108.469C233.587 110.799 232.568 113.905 232.568 117.788C232.568 123.175 234.558 127.251 238.537 130.018C242.517 132.736 247.589 134.094 253.752 134.094ZM378.39 37.2728V54.7443H317.312V37.2728H378.39ZM333.692 10.483H355.458V116.259C355.458 120.481 356.089 123.66 357.351 125.795C358.613 127.882 360.239 129.314 362.228 130.091C364.267 130.819 366.475 131.183 368.853 131.183C370.6 131.183 372.129 131.061 373.439 130.819C374.75 130.576 375.769 130.382 376.497 130.236L380.428 148.217C379.166 148.703 377.37 149.188 375.041 149.673C372.711 150.207 369.799 150.498 366.305 150.547C360.578 150.644 355.24 149.625 350.29 147.489C345.339 145.354 341.335 142.054 338.278 137.589C335.22 133.124 333.692 127.518 333.692 120.772V10.483ZM466.3 102.718V37.2728H488.14V149.091H466.737V129.727H465.572C463 135.696 458.875 140.671 453.197 144.65C447.567 148.581 440.554 150.547 432.158 150.547C424.975 150.547 418.618 148.97 413.085 145.815C407.601 142.612 403.281 137.88 400.127 131.619C397.021 125.359 395.468 117.618 395.468 108.397V37.2728H417.234V105.776C417.234 113.396 419.346 119.462 423.568 123.976C427.79 128.489 433.274 130.746 440.02 130.746C444.097 130.746 448.149 129.727 452.178 127.688C456.254 125.65 459.627 122.568 462.297 118.443C465.014 114.318 466.349 109.076 466.3 102.718ZM510.387 149.091V37.2728H531.425V55.0355H532.59C534.628 49.0175 538.22 44.2857 543.364 40.8399C548.557 37.3456 554.43 35.5984 560.981 35.5984C562.34 35.5984 563.942 35.6469 565.786 35.744C567.679 35.8411 569.159 35.9624 570.227 36.108V56.9283C569.353 56.6856 567.8 56.4187 565.568 56.1275C563.335 55.7878 561.103 55.6179 558.87 55.6179C553.726 55.6179 549.14 56.7099 545.111 58.8939C541.132 61.0293 537.977 64.014 535.648 67.848C533.318 71.6336 532.153 75.9529 532.153 80.8061V149.091H510.387ZM626.252 151.348C615.235 151.348 605.747 148.994 597.788 144.286C589.877 139.53 583.762 132.857 579.443 124.267C575.172 115.628 573.036 105.509 573.036 93.9098C573.036 82.4562 575.172 72.3615 579.443 63.6257C583.762 54.8899 589.78 48.0712 597.497 43.1694C605.262 38.2677 614.337 35.8168 624.723 35.8168C631.032 35.8168 637.147 36.8602 643.068 38.9471C648.989 41.034 654.304 44.3099 659.011 48.7749C663.719 53.2399 667.432 59.0394 670.149 66.1737C672.867 73.2594 674.226 81.8738 674.226 92.0171V99.7337H585.339V83.4269H652.896C652.896 77.7001 651.731 72.6285 649.402 68.212C647.072 63.7471 643.796 60.2285 639.574 57.6563C635.4 55.0841 630.499 53.798 624.869 53.798C618.754 53.798 613.415 55.3025 608.853 58.3115C604.34 61.2719 600.845 65.1545 598.37 69.9592C595.944 74.7153 594.73 79.884 594.73 85.4652V98.2049C594.73 105.679 596.041 112.037 598.661 117.278C601.331 122.52 605.043 126.523 609.8 129.29C614.556 132.008 620.113 133.367 626.47 133.367C630.596 133.367 634.357 132.784 637.754 131.619C641.151 130.406 644.088 128.61 646.563 126.232C649.038 123.854 650.931 120.918 652.241 117.424L672.843 121.136C671.193 127.203 668.232 132.517 663.961 137.079C659.739 141.593 654.425 145.111 648.019 147.635C641.661 150.11 634.405 151.348 626.252 151.348ZM733.236 151.275C724.209 151.275 716.153 148.97 709.067 144.359C702.03 139.7 696.497 133.075 692.469 124.485C688.489 115.846 686.499 105.485 686.499 93.4002C686.499 81.3157 688.513 70.9784 692.542 62.3882C696.618 53.798 702.2 47.2219 709.285 42.6598C716.371 38.0978 724.403 35.8168 733.381 35.8168C740.322 35.8168 745.903 36.9816 750.125 39.3111C754.396 41.5921 757.696 44.2614 760.026 47.3189C762.404 50.3765 764.248 53.07 765.558 55.3995H766.869V2.88486e-05H788.635V149.091H767.378V131.692H765.558C764.248 134.07 762.355 136.788 759.88 139.846C757.453 142.903 754.105 145.572 749.834 147.853C745.563 150.134 740.03 151.275 733.236 151.275ZM738.041 132.711C744.301 132.711 749.591 131.061 753.911 127.761C758.279 124.412 761.579 119.777 763.811 113.857C766.092 107.936 767.233 101.044 767.233 93.1818C767.233 85.4167 766.116 78.6222 763.884 72.7983C761.651 66.9745 758.376 62.4367 754.056 59.185C749.737 55.9334 744.398 54.3076 738.041 54.3076C731.489 54.3076 726.029 56.0062 721.661 59.4034C717.293 62.8007 713.993 67.4355 711.76 73.3079C709.576 79.1803 708.484 85.805 708.484 93.1818C708.484 100.656 709.601 107.378 711.833 113.347C714.066 119.316 717.366 124.048 721.734 127.543C726.15 130.988 731.586 132.711 738.041 132.711ZM884.197 149.091L851.292 37.2728H873.787L895.699 119.389H896.791L918.776 37.2728H941.271L963.11 119.025H964.202L985.969 37.2728H1008.46L975.631 149.091H953.428L930.715 68.3576H929.041L906.328 149.091H884.197ZM1065.82 151.348C1055.33 151.348 1046.19 148.945 1038.37 144.141C1030.56 139.336 1024.49 132.614 1020.17 123.976C1015.85 115.337 1013.69 105.242 1013.69 93.6914C1013.69 82.0922 1015.85 71.949 1020.17 63.2617C1024.49 54.5745 1030.56 47.8285 1038.37 43.0238C1046.19 38.2191 1055.33 35.8168 1065.82 35.8168C1076.3 35.8168 1085.45 38.2191 1093.26 43.0238C1101.08 47.8285 1107.14 54.5745 1111.46 63.2617C1115.78 71.949 1117.94 82.0922 1117.94 93.6914C1117.94 105.242 1115.78 115.337 1111.46 123.976C1107.14 132.614 1101.08 139.336 1093.26 144.141C1085.45 148.945 1076.3 151.348 1065.82 151.348ZM1065.89 133.075C1072.68 133.075 1078.31 131.28 1082.78 127.688C1087.24 124.097 1090.54 119.316 1092.68 113.347C1094.86 107.378 1095.96 100.801 1095.96 93.6186C1095.96 86.4844 1094.86 79.9326 1092.68 73.9631C1090.54 67.9451 1087.24 63.1162 1082.78 59.4762C1078.31 55.8363 1072.68 54.0164 1065.89 54.0164C1059.05 54.0164 1053.37 55.8363 1048.86 59.4762C1044.39 63.1162 1041.07 67.9451 1038.88 73.9631C1036.75 79.9326 1035.68 86.4844 1035.68 93.6186C1035.68 100.801 1036.75 107.378 1038.88 113.347C1041.07 119.316 1044.39 124.097 1048.86 127.688C1053.37 131.28 1059.05 133.075 1065.89 133.075ZM1135.24 149.091V37.2728H1156.28V55.0355H1157.44C1159.48 49.0175 1163.07 44.2857 1168.21 40.8399C1173.41 37.3456 1179.28 35.5984 1185.83 35.5984C1187.19 35.5984 1188.79 35.6469 1190.64 35.744C1192.53 35.8411 1194.01 35.9624 1195.08 36.108V56.9283C1194.2 56.6856 1192.65 56.4187 1190.42 56.1275C1188.19 55.7878 1185.95 55.6179 1183.72 55.6179C1178.58 55.6179 1173.99 56.7099 1169.96 58.8939C1165.98 61.0293 1162.83 64.014 1160.5 67.848C1158.17 71.6336 1157 75.9529 1157 80.8061V149.091H1135.24ZM1226.93 111.163L1226.79 84.5917H1230.57L1275.13 37.2728H1301.19L1250.37 91.1435H1246.95L1226.93 111.163ZM1206.91 149.091V2.88486e-05H1228.68V149.091H1206.91ZM1277.53 149.091L1237.49 95.9482L1252.49 80.7333L1304.25 149.091H1277.53Z" fill="white"/>
</svg>
