<svg width="1281" height="152" viewBox="0 0 1281 152" fill="none" xmlns="http://www.w3.org/2000/svg">
<path d="M8.73953e-06 149.091V2.88486e-05H92.4538V19.3644H22.4947V64.7905H85.8292V84.0821H22.4947V149.091H8.73953e-06ZM149.354 151.348C138.338 151.348 128.85 148.994 120.89 144.286C112.98 139.53 106.865 132.857 102.545 124.267C98.2744 115.628 96.1389 105.509 96.1389 93.9098C96.1389 82.4562 98.2744 72.3615 102.545 63.6257C106.865 54.8899 112.883 48.0712 120.599 43.1694C128.364 38.2677 137.44 35.8168 147.826 35.8168C154.135 35.8168 160.25 36.8602 166.171 38.9471C172.092 41.034 177.406 44.3099 182.114 48.7749C186.821 53.2399 190.534 59.0394 193.252 66.1737C195.97 73.2594 197.329 81.8738 197.329 92.0171V99.7337H108.442V83.4269H175.999C175.999 77.7001 174.834 72.6285 172.504 68.212C170.175 63.7471 166.899 60.2285 162.677 57.6563C158.503 55.0841 153.601 53.798 147.971 53.798C141.856 53.798 136.518 55.3025 131.956 58.3115C127.442 61.2719 123.948 65.1545 121.473 69.9592C119.046 74.7153 117.833 79.884 117.833 85.4652V98.2049C117.833 105.679 119.143 112.037 121.764 117.278C124.433 122.52 128.146 126.523 132.902 129.29C137.658 132.008 143.215 133.367 149.573 133.367C153.698 133.367 157.459 132.784 160.857 131.619C164.254 130.406 167.19 128.61 169.665 126.232C172.14 123.854 174.033 120.918 175.343 117.424L195.945 121.136C194.295 127.203 191.335 132.517 187.064 137.079C182.842 141.593 177.527 145.111 171.121 147.635C164.763 150.11 157.508 151.348 149.354 151.348ZM245.02 151.566C237.935 151.566 231.528 150.256 225.802 147.635C220.075 144.966 215.537 141.107 212.188 136.06C208.888 131.013 207.238 124.825 207.238 117.496C207.238 111.187 208.451 105.994 210.878 101.918C213.304 97.8409 216.58 94.6136 220.706 92.2355C224.831 89.8574 229.441 88.0617 234.537 86.8484C239.633 85.6351 244.826 84.713 250.116 84.0821C256.814 83.3055 262.249 82.6746 266.423 82.1893C270.597 81.6555 273.63 80.8061 275.523 79.6414C277.415 78.4766 278.362 76.5838 278.362 73.9631V73.4535C278.362 67.0958 276.566 62.1698 272.975 58.6755C269.432 55.1811 264.142 53.434 257.105 53.434C249.776 53.434 244.001 55.0598 239.779 58.3115C235.605 61.5146 232.717 65.0817 231.116 69.0128L210.659 64.3537C213.086 57.5592 216.629 52.0751 221.288 47.9013C225.996 43.679 231.407 40.6215 237.522 38.7287C243.637 36.7874 250.068 35.8168 256.814 35.8168C261.279 35.8168 266.01 36.3506 271.009 37.4184C276.057 38.4375 280.764 40.3303 285.132 43.0966C289.549 45.863 293.164 49.8183 295.979 54.9627C298.794 60.0586 300.201 66.6833 300.201 74.8367V149.091H278.944V133.803H278.071C276.663 136.618 274.552 139.385 271.737 142.102C268.922 144.82 265.307 147.077 260.89 148.873C256.474 150.668 251.184 151.566 245.02 151.566ZM249.752 134.094C255.77 134.094 260.915 132.905 265.185 130.527C269.505 128.149 272.781 125.043 275.013 121.209C277.294 117.327 278.435 113.177 278.435 108.761V94.3466C277.658 95.1231 276.154 95.8511 273.921 96.5306C271.737 97.1615 269.238 97.7196 266.423 98.2049C263.608 98.6417 260.866 99.0542 258.197 99.4425C255.527 99.7822 253.295 100.073 251.499 100.316C247.277 100.85 243.419 101.748 239.924 103.01C236.479 104.271 233.712 106.091 231.625 108.469C229.587 110.799 228.568 113.905 228.568 117.788C228.568 123.175 230.558 127.251 234.537 130.018C238.517 132.736 243.589 134.094 249.752 134.094ZM372.39 37.2728V54.7443H311.312V37.2728H372.39ZM327.692 10.483H349.458V116.259C349.458 120.481 350.089 123.66 351.351 125.795C352.613 127.882 354.239 129.314 356.228 130.091C358.267 130.819 360.475 131.183 362.853 131.183C364.6 131.183 366.129 131.061 367.439 130.819C368.75 130.576 369.769 130.382 370.497 130.236L374.428 148.217C373.166 148.703 371.37 149.188 369.041 149.673C366.711 150.207 363.799 150.498 360.305 150.547C354.578 150.644 349.24 149.625 344.29 147.489C339.339 145.354 335.335 142.054 332.278 137.589C329.22 133.124 327.692 127.518 327.692 120.772V10.483ZM458.3 102.718V37.2728H480.14V149.091H458.737V129.727H457.572C455 135.696 450.875 140.671 445.197 144.65C439.567 148.581 432.554 150.547 424.158 150.547C416.975 150.547 410.618 148.97 405.085 145.815C399.601 142.612 395.281 137.88 392.127 131.619C389.021 125.359 387.468 117.618 387.468 108.397V37.2728H409.234V105.776C409.234 113.396 411.346 119.462 415.568 123.976C419.79 128.489 425.274 130.746 432.02 130.746C436.097 130.746 440.149 129.727 444.178 127.688C448.254 125.65 451.627 122.568 454.297 118.443C457.014 114.318 458.349 109.076 458.3 102.718ZM500.387 149.091V37.2728H521.425V55.0355H522.59C524.628 49.0175 528.22 44.2857 533.364 40.8399C538.557 37.3456 544.43 35.5984 550.981 35.5984C552.34 35.5984 553.942 35.6469 555.786 35.744C557.679 35.8411 559.159 35.9624 560.227 36.108V56.9283C559.353 56.6856 557.8 56.4187 555.568 56.1275C553.335 55.7878 551.103 55.6179 548.87 55.6179C543.726 55.6179 539.14 56.7099 535.111 58.8939C531.132 61.0293 527.977 64.014 525.648 67.848C523.318 71.6336 522.153 75.9529 522.153 80.8061V149.091H500.387ZM614.252 151.348C603.235 151.348 593.747 148.994 585.788 144.286C577.877 139.53 571.762 132.857 567.443 124.267C563.172 115.628 561.036 105.509 561.036 93.9098C561.036 82.4562 563.172 72.3615 567.443 63.6257C571.762 54.8899 577.78 48.0712 585.497 43.1694C593.262 38.2677 602.337 35.8168 612.723 35.8168C619.032 35.8168 625.147 36.8602 631.068 38.9471C636.989 41.034 642.304 44.3099 647.011 48.7749C651.719 53.2399 655.432 59.0394 658.149 66.1737C660.867 73.2594 662.226 81.8738 662.226 92.0171V99.7337H573.339V83.4269H640.896C640.896 77.7001 639.731 72.6285 637.402 68.212C635.072 63.7471 631.796 60.2285 627.574 57.6563C623.4 55.0841 618.499 53.798 612.869 53.798C606.754 53.798 601.415 55.3025 596.853 58.3115C592.34 61.2719 588.845 65.1545 586.37 69.9592C583.944 74.7153 582.73 79.884 582.73 85.4652V98.2049C582.73 105.679 584.041 112.037 586.661 117.278C589.331 122.52 593.043 126.523 597.8 129.29C602.556 132.008 608.113 133.367 614.47 133.367C618.596 133.367 622.357 132.784 625.754 131.619C629.151 130.406 632.088 128.61 634.563 126.232C637.038 123.854 638.931 120.918 640.241 117.424L660.843 121.136C659.193 127.203 656.232 132.517 651.961 137.079C647.739 141.593 642.425 145.111 636.019 147.635C629.661 150.11 622.405 151.348 614.252 151.348ZM719.236 151.275C710.209 151.275 702.153 148.97 695.067 144.359C688.03 139.7 682.497 133.075 678.469 124.485C674.489 115.846 672.499 105.485 672.499 93.4002C672.499 81.3157 674.513 70.9784 678.542 62.3882C682.618 53.798 688.2 47.2219 695.285 42.6598C702.371 38.0978 710.403 35.8168 719.381 35.8168C726.322 35.8168 731.903 36.9816 736.125 39.3111C740.396 41.5921 743.696 44.2614 746.026 47.3189C748.404 50.3765 750.248 53.07 751.558 55.3995H752.869V2.88486e-05H774.635V149.091H753.378V131.692H751.558C750.248 134.07 748.355 136.788 745.88 139.846C743.453 142.903 740.105 145.572 735.834 147.853C731.563 150.134 726.03 151.275 719.236 151.275ZM724.041 132.711C730.301 132.711 735.591 131.061 739.911 127.761C744.279 124.412 747.579 119.777 749.811 113.857C752.092 107.936 753.233 101.044 753.233 93.1818C753.233 85.4167 752.116 78.6222 749.884 72.7983C747.651 66.9745 744.376 62.4367 740.056 59.185C735.737 55.9334 730.398 54.3076 724.041 54.3076C717.489 54.3076 712.029 56.0062 707.661 59.4034C703.293 62.8007 699.993 67.4355 697.76 73.3079C695.576 79.1803 694.484 85.805 694.484 93.1818C694.484 100.656 695.601 107.378 697.833 113.347C700.066 119.316 703.366 124.048 707.734 127.543C712.15 130.988 717.586 132.711 724.041 132.711ZM866.197 149.091L833.292 37.2728H855.787L877.699 119.389H878.791L900.776 37.2728H923.271L945.11 119.025H946.202L967.969 37.2728H990.464L957.631 149.091H935.428L912.715 68.3576H911.041L888.328 149.091H866.197ZM1045.82 151.348C1035.33 151.348 1026.19 148.945 1018.37 144.141C1010.56 139.336 1004.49 132.614 1000.17 123.976C995.853 115.337 993.694 105.242 993.694 93.6914C993.694 82.0922 995.853 71.949 1000.17 63.2617C1004.49 54.5745 1010.56 47.8285 1018.37 43.0238C1026.19 38.2191 1035.33 35.8168 1045.82 35.8168C1056.3 35.8168 1065.45 38.2191 1073.26 43.0238C1081.08 47.8285 1087.14 54.5745 1091.46 63.2617C1095.78 71.949 1097.94 82.0922 1097.94 93.6914C1097.94 105.242 1095.78 115.337 1091.46 123.976C1087.14 132.614 1081.08 139.336 1073.26 144.141C1065.45 148.945 1056.3 151.348 1045.82 151.348ZM1045.89 133.075C1052.68 133.075 1058.31 131.28 1062.78 127.688C1067.24 124.097 1070.54 119.316 1072.68 113.347C1074.86 107.378 1075.96 100.801 1075.96 93.6186C1075.96 86.4844 1074.86 79.9326 1072.68 73.9631C1070.54 67.9451 1067.24 63.1162 1062.78 59.4762C1058.31 55.8363 1052.68 54.0164 1045.89 54.0164C1039.05 54.0164 1033.37 55.8363 1028.86 59.4762C1024.39 63.1162 1021.07 67.9451 1018.88 73.9631C1016.75 79.9326 1015.68 86.4844 1015.68 93.6186C1015.68 100.801 1016.75 107.378 1018.88 113.347C1021.07 119.316 1024.39 124.097 1028.86 127.688C1033.37 131.28 1039.05 133.075 1045.89 133.075ZM1113.24 149.091V37.2728H1134.28V55.0355H1135.44C1137.48 49.0175 1141.07 44.2857 1146.21 40.8399C1151.41 37.3456 1157.28 35.5984 1163.83 35.5984C1165.19 35.5984 1166.79 35.6469 1168.64 35.744C1170.53 35.8411 1172.01 35.9624 1173.08 36.108V56.9283C1172.2 56.6856 1170.65 56.4187 1168.42 56.1275C1166.19 55.7878 1163.95 55.6179 1161.72 55.6179C1156.58 55.6179 1151.99 56.7099 1147.96 58.8939C1143.98 61.0293 1140.83 64.014 1138.5 67.848C1136.17 71.6336 1135 75.9529 1135 80.8061V149.091H1113.24ZM1202.93 111.163L1202.79 84.5917H1206.57L1251.13 37.2728H1277.19L1226.37 91.1435H1222.95L1202.93 111.163ZM1182.91 149.091V2.88486e-05H1204.68V149.091H1182.91ZM1253.53 149.091L1213.49 95.9482L1228.49 80.7333L1280.25 149.091H1253.53Z" fill="white"/>
</svg>
