<svg width="772" height="357" viewBox="0 0 772 357" fill="none" xmlns="http://www.w3.org/2000/svg">
<path d="M0 149.091V2.88486e-05H91.6531V18.4908H21.4027V65.1545H85.0284V83.6453H21.4027V149.091H0ZM148.845 151.348C137.925 151.348 128.51 148.994 120.599 144.286C112.688 139.53 106.598 132.857 102.327 124.267C98.056 115.628 95.9205 105.533 95.9205 93.9826C95.9205 82.529 98.056 72.4343 102.327 63.6985C106.598 54.9142 112.567 48.0712 120.235 43.1694C127.952 38.2677 136.955 35.8168 147.243 35.8168C153.455 35.8168 159.473 36.836 165.297 38.8743C171.17 40.9127 176.46 44.1643 181.167 48.6293C185.875 53.0457 189.588 58.8211 192.305 65.9553C195.072 73.0895 196.455 81.7525 196.455 91.9443V99.5153H108.223V83.5725H176.071C176.023 77.7486 174.81 72.5557 172.432 67.9936C170.102 63.3831 166.778 59.7674 162.458 57.1467C158.187 54.4774 153.164 53.1428 147.389 53.1428C141.08 53.1428 135.596 54.6958 130.937 57.8019C126.326 60.8594 122.759 64.8633 120.235 69.8136C117.712 74.7639 116.45 80.1024 116.45 85.8292V97.8409C116.45 105.558 117.809 112.109 120.526 117.496C123.244 122.884 127.03 126.985 131.883 129.799C136.785 132.614 142.487 134.022 148.991 134.022C153.261 134.022 157.12 133.415 160.565 132.202C164.011 130.988 166.996 129.168 169.52 126.742C172.043 124.315 173.985 121.306 175.343 117.715L194.926 121.646C193.276 127.615 190.34 132.833 186.118 137.298C181.895 141.763 176.63 145.233 170.32 147.708C164.011 150.134 156.853 151.348 148.845 151.348ZM244.747 151.566C237.662 151.566 231.255 150.256 225.528 147.635C219.802 144.966 215.264 141.107 211.915 136.06C208.566 130.964 206.892 124.776 206.892 117.496C206.892 111.139 208.105 105.946 210.532 101.918C213.007 97.8409 216.307 94.6378 220.433 92.3083C224.606 89.9302 229.241 88.1588 234.337 86.994C239.433 85.7807 244.626 84.8343 249.916 84.1549C256.613 83.3783 262.049 82.7474 266.223 82.2621C270.397 81.7282 273.454 80.9032 275.395 79.787C277.337 78.6222 278.307 76.7052 278.307 74.0359V73.5263C278.307 66.9745 276.463 61.9028 272.775 58.3115C269.135 54.6715 263.699 52.8516 256.468 52.8516C248.897 52.8516 242.952 54.5017 238.632 57.8019C234.313 61.1021 231.328 64.742 229.678 68.7216L210.241 63.7713C212.813 56.9768 216.453 51.5412 221.161 47.4645C225.868 43.3393 231.231 40.3788 237.249 38.5831C243.316 36.7389 249.576 35.8168 256.031 35.8168C260.302 35.8168 264.888 36.3264 269.79 37.3456C274.74 38.3162 279.424 40.1847 283.84 42.951C288.256 45.6688 291.872 49.5999 294.687 54.7443C297.502 59.8888 298.909 66.6347 298.909 74.9823V149.091H278.671V133.876H277.798C276.487 136.545 274.425 139.263 271.61 142.03C268.843 144.747 265.228 147.028 260.763 148.873C256.346 150.668 251.008 151.566 244.747 151.566ZM248.97 134.677C255.182 134.677 260.472 133.464 264.84 131.037C269.256 128.562 272.605 125.359 274.886 121.428C277.167 117.448 278.307 113.226 278.307 108.761V93.9826C277.531 94.8077 276.002 95.5599 273.721 96.2394C271.488 96.8703 268.916 97.4284 266.004 97.9137C263.141 98.3991 260.326 98.8116 257.56 99.1513C254.793 99.491 252.512 99.7822 250.717 100.025C246.446 100.607 242.515 101.529 238.923 102.791C235.332 104.053 232.469 105.897 230.333 108.324C228.198 110.702 227.13 113.881 227.13 117.86C227.13 123.393 229.168 127.591 233.245 130.455C237.37 133.269 242.612 134.677 248.97 134.677ZM370.77 37.2728V54.0164H310.42V37.2728H370.77ZM326.945 10.483H347.547V116.477C347.547 120.845 348.202 124.121 349.513 126.305C350.823 128.489 352.522 129.969 354.609 130.746C356.696 131.522 358.928 131.911 361.306 131.911C363.102 131.911 364.631 131.789 365.892 131.547C367.203 131.304 368.222 131.11 368.95 130.964L372.808 148.29C371.546 148.775 369.775 149.261 367.494 149.746C365.213 150.28 362.374 150.547 358.977 150.547C353.492 150.644 348.299 149.625 343.398 147.489C338.496 145.354 334.516 142.078 331.459 137.662C328.45 133.245 326.945 127.688 326.945 120.991V10.483ZM457.081 102.864V37.2728H477.683V149.091H457.372V129.799H456.207C453.635 135.72 449.534 140.671 443.905 144.65C438.275 148.581 431.262 150.547 422.866 150.547C415.732 150.547 409.422 148.97 403.938 145.815C398.454 142.66 394.135 137.953 390.98 131.692C387.874 125.431 386.321 117.666 386.321 108.397V37.2728H406.923V106.14C406.923 113.905 409.083 120.093 413.402 124.704C417.721 129.266 423.303 131.547 430.146 131.547C434.271 131.547 438.396 130.527 442.521 128.489C446.647 126.402 450.092 123.248 452.859 119.025C455.674 114.754 457.081 109.367 457.081 102.864ZM498.439 149.091V37.2728H518.386V54.8171H519.551C521.589 48.9447 525.205 44.2857 530.398 40.8399C535.591 37.3456 541.487 35.5984 548.088 35.5984C549.398 35.5984 550.975 35.6469 552.82 35.744C554.712 35.7925 556.193 35.8896 557.26 36.0352V56.0547C556.484 55.8121 555.004 55.5451 552.82 55.2539C550.636 54.9142 548.403 54.7443 546.122 54.7443C540.929 54.7443 536.294 55.8363 532.218 58.0203C528.141 60.2042 524.914 63.2132 522.536 67.0473C520.206 70.8813 519.041 75.2735 519.041 80.2238V149.091H498.439ZM611.74 151.348C600.821 151.348 591.405 148.994 583.495 144.286C575.584 139.53 569.493 132.857 565.222 124.267C560.951 115.628 558.816 105.533 558.816 93.9826C558.816 82.529 560.951 72.4343 565.222 63.6985C569.493 54.9142 575.463 48.0712 583.131 43.1694C590.847 38.2677 599.85 35.8168 610.139 35.8168C616.351 35.8168 622.369 36.836 628.193 38.8743C634.065 40.9127 639.355 44.1643 644.063 48.6293C648.77 53.0457 652.483 58.8211 655.201 65.9553C657.967 73.0895 659.351 81.7525 659.351 91.9443V99.5153H571.119V83.5725H638.967C638.918 77.7486 637.705 72.5557 635.327 67.9936C632.998 63.3831 629.673 59.7674 625.354 57.1467C621.083 54.4774 616.06 53.1428 610.284 53.1428C603.975 53.1428 598.491 54.6958 593.832 57.8019C589.221 60.8594 585.654 64.8633 583.131 69.8136C580.607 74.7639 579.345 80.1024 579.345 85.8292V97.8409C579.345 105.558 580.704 112.109 583.422 117.496C586.14 122.884 589.925 126.985 594.778 129.799C599.68 132.614 605.383 134.022 611.886 134.022C616.157 134.022 620.015 133.415 623.461 132.202C626.907 130.988 629.891 129.168 632.415 126.742C634.939 124.315 636.88 121.306 638.239 117.715L657.822 121.646C656.172 127.615 653.235 132.833 649.013 137.298C644.791 141.763 639.525 145.233 633.216 147.708C626.907 150.134 619.748 151.348 611.74 151.348ZM716.961 151.275C707.837 151.275 699.732 148.97 692.646 144.359C685.609 139.7 680.076 133.051 676.048 124.412C672.02 115.774 670.006 105.436 670.006 93.4002C670.006 81.4128 672.02 71.124 676.048 62.5338C680.125 53.895 685.706 47.2947 692.792 42.7326C699.926 38.1221 708.055 35.8168 717.179 35.8168C724.168 35.8168 729.773 36.9816 733.996 39.3111C738.267 41.6407 741.567 44.3342 743.896 47.3917C746.226 50.4493 748.046 53.0943 749.356 55.3267H750.667V2.88486e-05H771.341V149.091H751.249V131.765H749.356C748.046 134.046 746.177 136.715 743.751 139.773C741.373 142.83 738.024 145.524 733.705 147.853C729.434 150.134 723.853 151.275 716.961 151.275ZM721.183 133.512C727.589 133.512 733.001 131.813 737.417 128.416C741.882 125.019 745.255 120.311 747.536 114.293C749.866 108.227 751.031 101.19 751.031 93.1818C751.031 85.2711 749.89 78.3553 747.609 72.4343C745.377 66.4649 742.028 61.83 737.563 58.5299C733.146 55.2297 727.687 53.5796 721.183 53.5796C714.437 53.5796 708.808 55.3267 704.294 58.8211C699.829 62.2668 696.456 66.9745 694.175 72.9439C691.943 78.9134 690.826 85.6594 690.826 93.1818C690.826 100.801 691.967 107.669 694.248 113.784C696.529 119.85 699.926 124.655 704.44 128.198C708.953 131.741 714.534 133.512 721.183 133.512ZM221.684 354.091L188.56 242.273H209.89L232.385 325.263H233.477L255.972 242.273H277.374L299.651 324.899H300.815L323.165 242.273H344.567L311.371 354.091H290.551L267.401 272.047H265.727L242.577 354.091H221.684ZM399.648 356.348C389.262 356.348 380.186 353.945 372.421 349.141C364.656 344.336 358.614 337.614 354.295 328.976C350.024 320.337 347.888 310.242 347.888 298.691C347.888 287.092 350.024 276.949 354.295 268.262C358.614 259.574 364.656 252.829 372.421 248.024C380.186 243.219 389.262 240.817 399.648 240.817C410.034 240.817 419.109 243.219 426.874 248.024C434.64 252.829 440.658 259.574 444.928 268.262C449.248 276.949 451.407 287.092 451.407 298.691C451.407 310.242 449.248 320.337 444.928 328.976C440.658 337.614 434.64 344.336 426.874 349.141C419.109 353.945 410.034 356.348 399.648 356.348ZM399.721 338.803C406.709 338.803 412.485 336.959 417.047 333.271C421.657 329.582 425.079 324.705 427.311 318.638C429.544 312.572 430.66 305.923 430.66 298.691C430.66 291.46 429.544 284.787 427.311 278.672C425.079 272.557 421.657 267.631 417.047 263.894C412.485 260.157 406.709 258.288 399.721 258.288C392.635 258.288 386.787 260.157 382.176 263.894C377.614 267.631 374.217 272.557 371.985 278.672C369.752 284.787 368.636 291.46 368.636 298.691C368.636 305.923 369.752 312.572 371.985 318.638C374.217 324.705 377.614 329.582 382.176 333.271C386.787 336.959 392.635 338.803 399.721 338.803ZM467.104 354.091V242.273H487.051V259.817H488.216C490.254 253.945 493.87 249.286 499.063 245.84C504.256 242.346 510.152 240.598 516.753 240.598C518.063 240.598 519.64 240.647 521.485 240.744C523.377 240.793 524.858 240.89 525.925 241.035V261.055C525.149 260.812 523.669 260.545 521.485 260.254C519.301 259.914 517.068 259.744 514.787 259.744C509.594 259.744 504.959 260.836 500.883 263.02C496.806 265.204 493.579 268.213 491.201 272.047C488.871 275.881 487.706 280.273 487.706 285.224V354.091H467.104ZM555.381 315.435L555.163 290.247H558.948L604.593 242.273H629.417L578.312 295.852H575.328L555.381 315.435ZM536.381 354.091V205H556.983V354.091H536.381ZM607.068 354.091L566.155 300.439L580.424 286.025L632.547 354.091H607.068Z" fill="white"/>
</svg>
