<svg width="38" height="38" viewBox="0 0 38 38" fill="none" xmlns="http://www.w3.org/2000/svg">
<path d="M28.0833 9.75H28.1M10.5833 2.25H27.25C31.8524 2.25 35.5833 5.98096 35.5833 10.5833V27.25C35.5833 31.8524 31.8524 35.5833 27.25 35.5833H10.5833C5.98096 35.5833 2.25 31.8524 2.25 27.25V10.5833C2.25 5.98096 5.98096 2.25 10.5833 2.25ZM25.5833 17.8667C25.789 19.2537 25.5521 20.6704 24.9063 21.915C24.2604 23.1597 23.2386 24.169 21.986 24.7995C20.7335 25.4299 19.3141 25.6493 17.9296 25.4266C16.5452 25.2038 15.2663 24.5501 14.2747 23.5586C13.2832 22.5671 12.6296 21.2881 12.4068 19.9037C12.184 18.5193 12.4034 17.0998 13.0339 15.8473C13.6643 14.5948 14.6736 13.5729 15.9183 12.9271C17.163 12.2812 18.5796 12.0443 19.9667 12.25C21.3815 12.4598 22.6914 13.1191 23.7028 14.1305C24.7142 15.1419 25.3735 16.4518 25.5833 17.8667Z" stroke="#282828" stroke-width="4.5" stroke-linecap="round" stroke-linejoin="round"/>
</svg>
