<svg width="20" height="20" viewBox="0 0 20 20" fill="none" xmlns="http://www.w3.org/2000/svg">
<g clip-path="url(#clip0_2024_824)">
<path fill-rule="evenodd" clip-rule="evenodd" d="M3 5.75C3 4.75544 3.39509 3.80161 4.09835 3.09835C4.80161 2.39509 5.75544 2 6.75 2H12.75C12.9489 2 13.1397 2.07902 13.2803 2.21967C13.421 2.36032 13.5 2.55109 13.5 2.75C13.5 2.94891 13.421 3.13968 13.2803 3.28033C13.1397 3.42098 12.9489 3.5 12.75 3.5H6.75C6.15326 3.5 5.58097 3.73705 5.15901 4.15901C4.73705 4.58097 4.5 5.15326 4.5 5.75V11.75C4.5 11.9489 4.42098 12.1397 4.28033 12.2803C4.13968 12.421 3.94891 12.5 3.75 12.5C3.55109 12.5 3.36032 12.421 3.21967 12.2803C3.07902 12.1397 3 11.9489 3 11.75V5.75Z" fill="#CDCDCD"/>
<path fill-rule="evenodd" clip-rule="evenodd" d="M14.75 6.25H8.75C8.35218 6.25 7.97064 6.40804 7.68934 6.68934C7.40804 6.97064 7.25 7.35218 7.25 7.75V15.75C7.25 16.1478 7.40804 16.5294 7.68934 16.8107C7.97064 17.092 8.35218 17.25 8.75 17.25H14.75C15.1478 17.25 15.5294 17.092 15.8107 16.8107C16.092 16.5294 16.25 16.1478 16.25 15.75V7.75C16.25 7.35218 16.092 6.97064 15.8107 6.68934C15.5294 6.40804 15.1478 6.25 14.75 6.25ZM8.75 4.75C7.95435 4.75 7.19129 5.06607 6.62868 5.62868C6.06607 6.19129 5.75 6.95435 5.75 7.75V15.75C5.75 16.5456 6.06607 17.3087 6.62868 17.8713C7.19129 18.4339 7.95435 18.75 8.75 18.75H14.75C15.5456 18.75 16.3087 18.4339 16.8713 17.8713C17.4339 17.3087 17.75 16.5456 17.75 15.75V7.75C17.75 6.95435 17.4339 6.19129 16.8713 5.62868C16.3087 5.06607 15.5456 4.75 14.75 4.75H8.75Z" fill="#CDCDCD"/>
</g>
<defs>
<clipPath id="clip0_2024_824">
<rect width="20" height="20" fill="white"/>
</clipPath>
</defs>
</svg>
