<svg width="41" height="41" viewBox="0 0 41 41" fill="none" xmlns="http://www.w3.org/2000/svg">
<path d="M36.8 0.344896H3.425C2.99482 0.324746 2.56488 0.389622 2.1598 0.535847C1.75473 0.682072 1.38248 0.906746 1.06433 1.197C0.746201 1.48727 0.488425 1.83745 0.3058 2.22745C0.123175 2.61747 0.01925 3.03967 0 3.4699V36.92C0.0252 37.8202 0.394149 38.677 1.03107 39.3137C1.668 39.9507 2.5246 40.3197 3.425 40.345H36.8C37.6752 40.306 38.5005 39.9255 39.0987 39.2852C39.697 38.645 40.0205 37.796 40 36.92V3.4699C40.0072 3.05115 39.9288 2.63537 39.7695 2.24802C39.6103 1.8607 39.3735 1.50997 39.0737 1.21735C38.7742 0.924746 38.418 0.696447 38.027 0.546422C37.636 0.396397 37.2185 0.327821 36.8 0.344896ZM12.5 33.695H6.675V15.87H12.5V33.695ZM9.725 13.1699C9.31852 13.1841 8.9135 13.114 8.5354 12.9642C8.15727 12.8143 7.81422 12.5879 7.52782 12.2991C7.2414 12.0103 7.01778 11.6655 6.87103 11.2861C6.72425 10.9068 6.65753 10.5012 6.675 10.0949C6.65703 9.68414 6.7251 9.27419 6.87487 8.89132C7.02465 8.50842 7.2528 8.16107 7.54467 7.87154C7.83657 7.58199 8.18575 7.35667 8.56982 7.21002C8.95392 7.06334 9.36442 6.99859 9.775 7.01989C10.1815 7.00574 10.5865 7.07577 10.9646 7.22562C11.3427 7.37547 11.6858 7.60189 11.9722 7.89067C12.2586 8.17944 12.4822 8.52432 12.629 8.90364C12.7757 9.28297 12.8425 9.68854 12.825 10.0949C12.843 10.5056 12.7749 10.9156 12.6251 11.2985C12.4753 11.6814 12.2472 12.0287 11.9553 12.3182C11.6634 12.6078 11.3143 12.8331 10.9302 12.9798C10.5461 13.1264 10.1356 13.1912 9.725 13.1699ZM33.35 33.695H27.5V23.945C27.5 21.62 26.675 20.02 24.6 20.02C23.9555 20.0255 23.3282 20.2302 22.8047 20.6062C22.281 20.9822 21.8865 21.511 21.675 22.12C21.5125 22.5765 21.4445 23.0612 21.475 23.545V33.695H15.725V15.87H21.475V18.37C21.9863 17.4307 22.747 16.6512 23.6735 16.1172C24.6 15.5835 25.656 15.3162 26.725 15.3449C30.5 15.3449 33.35 17.845 33.35 23.17V33.695Z" fill="#313131"/>
</svg>
