<svg width="24" height="24" viewBox="0 0 24 24" fill="none" xmlns="http://www.w3.org/2000/svg">
<g clip-path="url(#clip0_2291_927)">
<path fill-rule="evenodd" clip-rule="evenodd" d="M9.86477 6.26394C10.0335 6.0954 10.2623 6.00073 10.5008 6.00073C10.7393 6.00073 10.968 6.0954 11.1368 6.26394L16.2368 11.3639C16.4053 11.5327 16.5 11.7614 16.5 11.9999C16.5 12.2384 16.4053 12.4672 16.2368 12.6359L11.1368 17.7359C10.9662 17.8949 10.7405 17.9815 10.5073 17.9774C10.2742 17.9732 10.0517 17.8788 9.88682 17.7139C9.72193 17.549 9.62747 17.3265 9.62336 17.0934C9.61925 16.8602 9.70579 16.6346 9.86477 16.4639L14.3288 11.9999L9.86477 7.53594C9.69623 7.36719 9.60156 7.13844 9.60156 6.89994C9.60156 6.66144 9.69623 6.43269 9.86477 6.26394Z" fill="#0E0E0E"/>
</g>
<defs>
<clipPath id="clip0_2291_927">
<rect width="24" height="24" fill="white"/>
</clipPath>
</defs>
</svg>
