<svg width="43" height="43" viewBox="0 0 43 43" fill="none" xmlns="http://www.w3.org/2000/svg">
<g clip-path="url(#clip0_2205_173)">
<path fill-rule="evenodd" clip-rule="evenodd" d="M17.6728 11.223C17.9751 10.9211 18.3849 10.7515 18.8123 10.7515C19.2396 10.7515 19.6494 10.9211 19.9518 11.223L29.0893 20.3605C29.3912 20.6629 29.5608 21.0727 29.5608 21.5C29.5608 21.9274 29.3912 22.3372 29.0893 22.6395L19.9518 31.777C19.6461 32.0619 19.2418 32.2169 18.824 32.2096C18.4063 32.2022 18.0077 32.033 17.7123 31.7375C17.4168 31.4421 17.2476 31.0435 17.2402 30.6258C17.2329 30.208 17.3879 29.8037 17.6728 29.498L25.6708 21.5L17.6728 13.502C17.3708 13.1997 17.2012 12.7899 17.2012 12.3625C17.2012 11.9352 17.3708 11.5254 17.6728 11.223Z" fill="white"/>
</g>
<defs>
<clipPath id="clip0_2205_173">
<rect width="43" height="43" fill="white"/>
</clipPath>
</defs>
</svg>
